<svg
    version="1.0"
    viewBox="0 0 1000.000000 1091.000000"
    xmlns="http://www.w3.org/2000/svg"
    >
      <g
        transform="translate(0.000000,1091.000000) scale(0.100000,-0.100000)"
        fill="#333"
        stroke="#a81515" stroke-width="36"
      >
        <path
          d="M5177 9868 c-58 -117 -126 -258 -152 -313 -100 -210 -144 -303 -192
-405 -107 -224 -147 -309 -193 -405 -26 -55 -68 -143 -93 -195 -24 -52 -61
-129 -80 -170 -42 -92 -152 -323 -284 -600 -31 -63 -72 -151 -93 -195 -21 -44
-62 -132 -93 -195 -30 -63 -71 -151 -92 -195 -21 -44 -69 -145 -106 -223 -38
-79 -69 -145 -69 -147 0 -1 -32 -69 -71 -151 -39 -82 -88 -185 -109 -229 -21
-44 -61 -129 -90 -190 -117 -246 -198 -416 -265 -560 -31 -66 -77 -164 -182
-385 -25 -52 -67 -140 -93 -195 -26 -55 -71 -149 -100 -210 -29 -60 -67 -141
-85 -180 -18 -38 -57 -122 -87 -185 -31 -63 -67 -140 -81 -170 -14 -30 -51
-109 -82 -175 -77 -161 -140 -295 -180 -380 -18 -38 -69 -146 -114 -239 -45
-92 -81 -169 -81 -171 0 -2 -29 -63 -64 -137 -35 -73 -80 -167 -99 -208 -19
-41 -63 -133 -97 -205 -34 -71 -75 -159 -92 -195 -85 -178 -229 -468 -245
-489 l-18 -24 25 13 c37 19 248 143 378 222 63 37 116 68 118 68 2 0 35 20 74
45 39 25 72 45 74 45 2 0 46 25 97 57 52 31 103 61 114 67 19 11 242 143 495
294 69 41 139 83 155 92 17 10 100 59 185 110 85 51 169 100 185 110 17 9 72
43 124 74 51 31 96 56 100 57 13 1 145 95 153 109 8 16 29 63 103 235 26 61
58 134 71 163 13 29 24 55 24 57 0 2 12 30 26 62 15 32 32 72 39 88 44 104
111 259 136 313 16 35 29 65 29 68 0 2 9 24 20 49 44 98 60 137 135 310 43 99
85 198 95 220 10 22 30 69 45 105 15 36 33 79 40 95 60 134 105 236 105 240 0
2 14 34 30 70 17 36 30 68 30 70 0 2 11 28 24 57 50 111 66 148 66 152 0 3 16
39 35 80 19 42 35 78 35 81 0 4 44 104 105 240 7 17 25 59 40 95 29 71 51 121
96 218 16 35 29 65 29 68 0 2 9 24 20 49 11 25 29 65 40 90 11 25 20 49 20 55
0 18 16 11 28 -12 6 -13 31 -66 55 -118 48 -102 93 -199 177 -375 29 -60 70
-148 92 -195 22 -47 67 -141 100 -210 33 -69 71 -150 85 -180 14 -30 36 -77
48 -105 13 -27 50 -106 83 -175 70 -146 138 -289 197 -415 24 -49 66 -139 95
-200 29 -60 68 -144 87 -185 19 -41 55 -117 79 -168 24 -51 59 -125 78 -165
33 -71 72 -153 176 -372 29 -60 67 -141 85 -180 18 -38 57 -122 87 -185 30
-63 67 -143 83 -177 24 -54 37 -68 89 -101 34 -22 140 -88 236 -149 96 -60
281 -177 410 -258 129 -81 312 -196 405 -255 94 -59 233 -147 310 -195 220
-140 345 -215 355 -215 12 0 13 23 2 36 -5 5 -16 27 -25 49 -8 22 -34 79 -56
127 -23 48 -41 89 -41 92 0 2 -20 47 -45 99 -25 53 -45 98 -45 101 0 2 -13 33
-29 68 -16 35 -38 86 -49 113 -11 28 -34 80 -51 118 -17 37 -31 70 -31 72 0 3
-16 39 -35 81 -19 41 -35 77 -35 80 0 4 -16 41 -66 152 -13 29 -24 55 -24 57
0 2 -11 28 -24 57 -13 29 -50 114 -81 188 -32 74 -70 163 -86 198 -16 35 -29
65 -29 67 0 3 -11 28 -24 57 -14 30 -34 76 -45 104 -11 29 -29 72 -40 98 -12
25 -30 66 -41 91 -11 25 -20 47 -20 49 0 3 -15 37 -33 78 -19 40 -40 89 -47
108 -7 19 -28 68 -47 108 -18 41 -33 75 -33 78 0 2 -10 26 -21 52 -27 61 -41
92 -74 172 -15 36 -35 83 -45 105 -10 22 -30 69 -45 105 -15 36 -33 80 -41 98
-82 190 -164 383 -164 387 0 2 -13 32 -29 67 -16 35 -54 124 -86 198 -31 74
-65 153 -75 175 -10 22 -30 69 -45 105 -15 36 -35 83 -46 106 -10 22 -27 63
-37 90 -11 27 -31 74 -45 104 -13 30 -55 127 -92 215 -37 88 -79 185 -92 215
-14 30 -34 77 -45 104 -10 27 -27 68 -37 90 -11 23 -31 70 -46 106 -15 36 -35
83 -45 105 -10 22 -30 69 -45 105 -15 36 -35 83 -45 105 -10 22 -46 105 -80
185 -33 80 -67 159 -75 175 -7 17 -25 59 -40 95 -15 36 -35 83 -45 105 -10 22
-30 69 -45 105 -15 36 -35 83 -45 105 -10 22 -39 90 -65 150 -26 61 -55 128
-65 150 -10 22 -30 69 -45 105 -15 36 -35 83 -45 105 -10 22 -30 69 -45 105
-15 36 -35 83 -45 105 -10 22 -59 137 -110 255 -51 118 -102 238 -114 265 -12
28 -65 148 -117 267 -52 120 -97 218 -101 218 -4 0 -54 -96 -111 -212z"
        />
        <path
          d="M5190 3570 c-30 -22 -59 -40 -63 -40 -4 0 -121 -75 -260 -167 -317
-209 -615 -406 -922 -608 -132 -87 -343 -226 -470 -310 -126 -83 -318 -209
-425 -280 -107 -70 -298 -196 -425 -280 -984 -649 -1072 -707 -1312 -860 -112
-71 -203 -133 -203 -138 0 -11 19 -7 150 29 52 14 111 30 130 34 44 10 156 40
280 75 52 14 129 35 170 46 41 11 89 24 105 29 104 29 230 64 290 80 39 10 95
25 125 34 114 33 207 58 275 76 68 18 161 43 275 76 30 9 87 24 125 34 39 10
97 26 130 35 80 23 105 30 200 55 44 12 94 25 110 30 17 4 57 16 90 25 33 10
74 21 90 26 17 4 48 13 70 19 22 6 56 15 75 20 47 11 145 38 200 54 88 26 398
112 565 156 39 10 104 28 145 40 88 25 159 45 255 70 72 19 123 33 255 71 107
31 80 35 370 -46 52 -15 111 -31 130 -35 36 -9 64 -17 160 -44 140 -40 208
-59 240 -66 19 -4 69 -18 110 -29 41 -12 118 -33 170 -47 107 -29 117 -32 250
-69 52 -14 127 -34 165 -45 39 -10 106 -28 150 -40 143 -40 259 -71 330 -90
39 -10 97 -26 130 -35 83 -24 109 -31 195 -53 41 -11 109 -30 150 -41 41 -12
116 -32 165 -46 50 -13 117 -31 150 -40 73 -19 297 -81 345 -95 67 -19 226
-62 315 -85 50 -13 169 -44 265 -69 96 -25 199 -52 228 -59 85 -23 77 -15
-118 107 -58 36 -129 81 -157 99 -29 17 -142 91 -252 163 -109 72 -202 133
-207 135 -5 2 -164 108 -354 234 -190 127 -349 232 -355 234 -5 2 -51 32 -102
67 -50 35 -96 64 -102 64 -6 0 -11 5 -11 10 0 6 -5 10 -10 10 -6 0 -16 5 -23
10 -14 13 -471 316 -484 321 -4 2 -102 67 -218 144 -115 77 -214 142 -220 145
-5 3 -111 73 -234 155 -124 83 -230 152 -235 155 -6 3 -105 68 -221 145 -115
77 -215 142 -220 145 -6 3 -110 71 -232 153 -121 81 -224 147 -229 147 -5 0
-34 -18 -64 -40z"
        />
        <path
          d="M980 830 c0 -5 7 -10 15 -10 8 0 15 5 15 10 0 6 -7 10 -15 10 -8 0
-15 -4 -15 -10z"
        />
      </g>
    </svg>